<?xml version="1.0" encoding="utf-8" standalone="no"?>
<!DOCTYPE svg PUBLIC "-//W3C//DTD SVG 1.1//EN"
  "http://www.w3.org/Graphics/SVG/1.1/DTD/svg11.dtd">
<!-- Created with matplotlib (https://matplotlib.org/) -->
<svg height="345.6pt" version="1.1" viewBox="0 0 460.8 345.6" width="460.8pt" xmlns="http://www.w3.org/2000/svg" xmlns:xlink="http://www.w3.org/1999/xlink">
 <defs>
  <style type="text/css">
*{stroke-linecap:butt;stroke-linejoin:round;}
  </style>
 </defs>
 <g id="figure_1">
  <g id="patch_1">
   <path d="M 0 345.6 
L 460.8 345.6 
L 460.8 0 
L 0 0 
z
" style="fill:#ffffff;"/>
  </g>
  <g id="axes_1">
   <g id="patch_2">
    <path d="M 57.6 307.584 
L 414.72 307.584 
L 414.72 41.472 
L 57.6 41.472 
z
" style="fill:#ffffff;"/>
   </g>
   <g id="matplotlib.axis_1">
    <g id="xtick_1">
     <g id="line2d_1">
      <defs>
       <path d="M 0 0 
L 0 3.5 
" id="mf941d3e2b3" style="stroke:#000000;stroke-width:0.8;"/>
      </defs>
      <g>
       <use style="stroke:#000000;stroke-width:0.8;" x="103.104" xlink:href="#mf941d3e2b3" y="307.584"/>
      </g>
     </g>
     <g id="text_1">
      <!-- −4 -->
      <defs>
       <path d="M 10.59375 35.5 
L 73.1875 35.5 
L 73.1875 27.203125 
L 10.59375 27.203125 
z
" id="DejaVuSans-8722"/>
       <path d="M 37.796875 64.3125 
L 12.890625 25.390625 
L 37.796875 25.390625 
z
M 35.203125 72.90625 
L 47.609375 72.90625 
L 47.609375 25.390625 
L 58.015625 25.390625 
L 58.015625 17.1875 
L 47.609375 17.1875 
L 47.609375 0 
L 37.796875 0 
L 37.796875 17.1875 
L 4.890625 17.1875 
L 4.890625 26.703125 
z
" id="DejaVuSans-52"/>
      </defs>
      <g transform="translate(95.732906 322.182437)scale(0.1 -0.1)">
       <use xlink:href="#DejaVuSans-8722"/>
       <use x="83.789062" xlink:href="#DejaVuSans-52"/>
      </g>
     </g>
    </g>
    <g id="xtick_2">
     <g id="line2d_2">
      <g>
       <use style="stroke:#000000;stroke-width:0.8;" x="169.632" xlink:href="#mf941d3e2b3" y="307.584"/>
      </g>
     </g>
     <g id="text_2">
      <!-- −2 -->
      <defs>
       <path d="M 19.1875 8.296875 
L 53.609375 8.296875 
L 53.609375 0 
L 7.328125 0 
L 7.328125 8.296875 
Q 12.9375 14.109375 22.625 23.890625 
Q 32.328125 33.6875 34.8125 36.53125 
Q 39.546875 41.84375 41.421875 45.53125 
Q 43.3125 49.21875 43.3125 52.78125 
Q 43.3125 58.59375 39.234375 62.25 
Q 35.15625 65.921875 28.609375 65.921875 
Q 23.96875 65.921875 18.8125 64.3125 
Q 13.671875 62.703125 7.8125 59.421875 
L 7.8125 69.390625 
Q 13.765625 71.78125 18.9375 73 
Q 24.125 74.21875 28.421875 74.21875 
Q 39.75 74.21875 46.484375 68.546875 
Q 53.21875 62.890625 53.21875 53.421875 
Q 53.21875 48.921875 51.53125 44.890625 
Q 49.859375 40.875 45.40625 35.40625 
Q 44.1875 33.984375 37.640625 27.21875 
Q 31.109375 20.453125 19.1875 8.296875 
z
" id="DejaVuSans-50"/>
      </defs>
      <g transform="translate(162.260906 322.182437)scale(0.1 -0.1)">
       <use xlink:href="#DejaVuSans-8722"/>
       <use x="83.789062" xlink:href="#DejaVuSans-50"/>
      </g>
     </g>
    </g>
    <g id="xtick_3">
     <g id="line2d_3">
      <g>
       <use style="stroke:#000000;stroke-width:0.8;" x="236.16" xlink:href="#mf941d3e2b3" y="307.584"/>
      </g>
     </g>
     <g id="text_3">
      <!-- 0 -->
      <defs>
       <path d="M 31.78125 66.40625 
Q 24.171875 66.40625 20.328125 58.90625 
Q 16.5 51.421875 16.5 36.375 
Q 16.5 21.390625 20.328125 13.890625 
Q 24.171875 6.390625 31.78125 6.390625 
Q 39.453125 6.390625 43.28125 13.890625 
Q 47.125 21.390625 47.125 36.375 
Q 47.125 51.421875 43.28125 58.90625 
Q 39.453125 66.40625 31.78125 66.40625 
z
M 31.78125 74.21875 
Q 44.046875 74.21875 50.515625 64.515625 
Q 56.984375 54.828125 56.984375 36.375 
Q 56.984375 17.96875 50.515625 8.265625 
Q 44.046875 -1.421875 31.78125 -1.421875 
Q 19.53125 -1.421875 13.0625 8.265625 
Q 6.59375 17.96875 6.59375 36.375 
Q 6.59375 54.828125 13.0625 64.515625 
Q 19.53125 74.21875 31.78125 74.21875 
z
" id="DejaVuSans-48"/>
      </defs>
      <g transform="translate(232.97875 322.182437)scale(0.1 -0.1)">
       <use xlink:href="#DejaVuSans-48"/>
      </g>
     </g>
    </g>
    <g id="xtick_4">
     <g id="line2d_4">
      <g>
       <use style="stroke:#000000;stroke-width:0.8;" x="302.688" xlink:href="#mf941d3e2b3" y="307.584"/>
      </g>
     </g>
     <g id="text_4">
      <!-- 2 -->
      <g transform="translate(299.50675 322.182437)scale(0.1 -0.1)">
       <use xlink:href="#DejaVuSans-50"/>
      </g>
     </g>
    </g>
    <g id="xtick_5">
     <g id="line2d_5">
      <g>
       <use style="stroke:#000000;stroke-width:0.8;" x="369.216" xlink:href="#mf941d3e2b3" y="307.584"/>
      </g>
     </g>
     <g id="text_5">
      <!-- 4 -->
      <g transform="translate(366.03475 322.182437)scale(0.1 -0.1)">
       <use xlink:href="#DejaVuSans-52"/>
      </g>
     </g>
    </g>
   </g>
   <g id="matplotlib.axis_2">
    <g id="ytick_1">
     <g id="line2d_6">
      <defs>
       <path d="M 0 0 
L -3.5 0 
" id="m7480684a88" style="stroke:#000000;stroke-width:0.8;"/>
      </defs>
      <g>
       <use style="stroke:#000000;stroke-width:0.8;" x="57.6" xlink:href="#m7480684a88" y="307.584"/>
      </g>
     </g>
     <g id="text_6">
      <!-- −4 -->
      <g transform="translate(35.857813 311.383219)scale(0.1 -0.1)">
       <use xlink:href="#DejaVuSans-8722"/>
       <use x="83.789062" xlink:href="#DejaVuSans-52"/>
      </g>
     </g>
    </g>
    <g id="ytick_2">
     <g id="line2d_7">
      <g>
       <use style="stroke:#000000;stroke-width:0.8;" x="57.6" xlink:href="#m7480684a88" y="274.32"/>
      </g>
     </g>
     <g id="text_7">
      <!-- −3 -->
      <defs>
       <path d="M 40.578125 39.3125 
Q 47.65625 37.796875 51.625 33 
Q 55.609375 28.21875 55.609375 21.1875 
Q 55.609375 10.40625 48.1875 4.484375 
Q 40.765625 -1.421875 27.09375 -1.421875 
Q 22.515625 -1.421875 17.65625 -0.515625 
Q 12.796875 0.390625 7.625 2.203125 
L 7.625 11.71875 
Q 11.71875 9.328125 16.59375 8.109375 
Q 21.484375 6.890625 26.8125 6.890625 
Q 36.078125 6.890625 40.9375 10.546875 
Q 45.796875 14.203125 45.796875 21.1875 
Q 45.796875 27.640625 41.28125 31.265625 
Q 36.765625 34.90625 28.71875 34.90625 
L 20.21875 34.90625 
L 20.21875 43.015625 
L 29.109375 43.015625 
Q 36.375 43.015625 40.234375 45.921875 
Q 44.09375 48.828125 44.09375 54.296875 
Q 44.09375 59.90625 40.109375 62.90625 
Q 36.140625 65.921875 28.71875 65.921875 
Q 24.65625 65.921875 20.015625 65.03125 
Q 15.375 64.15625 9.8125 62.3125 
L 9.8125 71.09375 
Q 15.4375 72.65625 20.34375 73.4375 
Q 25.25 74.21875 29.59375 74.21875 
Q 40.828125 74.21875 47.359375 69.109375 
Q 53.90625 64.015625 53.90625 55.328125 
Q 53.90625 49.265625 50.4375 45.09375 
Q 46.96875 40.921875 40.578125 39.3125 
z
" id="DejaVuSans-51"/>
      </defs>
      <g transform="translate(35.857813 278.119219)scale(0.1 -0.1)">
       <use xlink:href="#DejaVuSans-8722"/>
       <use x="83.789062" xlink:href="#DejaVuSans-51"/>
      </g>
     </g>
    </g>
    <g id="ytick_3">
     <g id="line2d_8">
      <g>
       <use style="stroke:#000000;stroke-width:0.8;" x="57.6" xlink:href="#m7480684a88" y="241.056"/>
      </g>
     </g>
     <g id="text_8">
      <!-- −2 -->
      <g transform="translate(35.857813 244.855219)scale(0.1 -0.1)">
       <use xlink:href="#DejaVuSans-8722"/>
       <use x="83.789062" xlink:href="#DejaVuSans-50"/>
      </g>
     </g>
    </g>
    <g id="ytick_4">
     <g id="line2d_9">
      <g>
       <use style="stroke:#000000;stroke-width:0.8;" x="57.6" xlink:href="#m7480684a88" y="207.792"/>
      </g>
     </g>
     <g id="text_9">
      <!-- −1 -->
      <defs>
       <path d="M 12.40625 8.296875 
L 28.515625 8.296875 
L 28.515625 63.921875 
L 10.984375 60.40625 
L 10.984375 69.390625 
L 28.421875 72.90625 
L 38.28125 72.90625 
L 38.28125 8.296875 
L 54.390625 8.296875 
L 54.390625 0 
L 12.40625 0 
z
" id="DejaVuSans-49"/>
      </defs>
      <g transform="translate(35.857813 211.591219)scale(0.1 -0.1)">
       <use xlink:href="#DejaVuSans-8722"/>
       <use x="83.789062" xlink:href="#DejaVuSans-49"/>
      </g>
     </g>
    </g>
    <g id="ytick_5">
     <g id="line2d_10">
      <g>
       <use style="stroke:#000000;stroke-width:0.8;" x="57.6" xlink:href="#m7480684a88" y="174.528"/>
      </g>
     </g>
     <g id="text_10">
      <!-- 0 -->
      <g transform="translate(44.2375 178.327219)scale(0.1 -0.1)">
       <use xlink:href="#DejaVuSans-48"/>
      </g>
     </g>
    </g>
    <g id="ytick_6">
     <g id="line2d_11">
      <g>
       <use style="stroke:#000000;stroke-width:0.8;" x="57.6" xlink:href="#m7480684a88" y="141.264"/>
      </g>
     </g>
     <g id="text_11">
      <!-- 1 -->
      <g transform="translate(44.2375 145.063219)scale(0.1 -0.1)">
       <use xlink:href="#DejaVuSans-49"/>
      </g>
     </g>
    </g>
    <g id="ytick_7">
     <g id="line2d_12">
      <g>
       <use style="stroke:#000000;stroke-width:0.8;" x="57.6" xlink:href="#m7480684a88" y="108"/>
      </g>
     </g>
     <g id="text_12">
      <!-- 2 -->
      <g transform="translate(44.2375 111.799219)scale(0.1 -0.1)">
       <use xlink:href="#DejaVuSans-50"/>
      </g>
     </g>
    </g>
    <g id="ytick_8">
     <g id="line2d_13">
      <g>
       <use style="stroke:#000000;stroke-width:0.8;" x="57.6" xlink:href="#m7480684a88" y="74.736"/>
      </g>
     </g>
     <g id="text_13">
      <!-- 3 -->
      <g transform="translate(44.2375 78.535219)scale(0.1 -0.1)">
       <use xlink:href="#DejaVuSans-51"/>
      </g>
     </g>
    </g>
    <g id="ytick_9">
     <g id="line2d_14">
      <g>
       <use style="stroke:#000000;stroke-width:0.8;" x="57.6" xlink:href="#m7480684a88" y="41.472"/>
      </g>
     </g>
     <g id="text_14">
      <!-- 4 -->
      <g transform="translate(44.2375 45.271219)scale(0.1 -0.1)">
       <use xlink:href="#DejaVuSans-52"/>
      </g>
     </g>
    </g>
   </g>
   <g id="LineCollection_1">
    <path clip-path="url(#pa75e86641e)" d="M 167.558601 307.584 
L 164.88 302.565894 
L 164.677297 302.153143 
L 162.527937 296.722286 
L 160.965193 291.291429 
L 159.963789 285.860571 
L 159.506016 280.429714 
L 159.581499 274.998857 
L 160.187149 269.568 
L 161.327312 264.137143 
L 163.014138 258.706286 
L 164.88 254.213865 
L 165.284116 253.275429 
L 168.251008 247.844571 
L 171.668571 242.727011 
L 171.891614 242.413714 
L 176.498207 236.982857 
L 178.457143 235.007791 
L 182.233744 231.552 
L 185.245714 229.157319 
L 189.603154 226.121143 
L 192.034286 224.626391 
L 198.822857 221.123664 
L 199.874986 220.690286 
L 205.611429 218.572053 
L 212.4 216.750906 
L 219.188571 215.625033 
L 224.920448 215.259429 
L 225.977143 215.197813 
L 227.748239 215.259429 
L 232.765714 215.44705 
L 239.554286 216.376182 
L 246.342857 217.963331 
L 253.131429 220.187379 
L 254.336967 220.690286 
L 259.92 223.239111 
L 265.177498 226.121143 
L 266.708571 227.051987 
L 273.138943 231.552 
L 273.497143 231.833832 
L 279.374018 236.982857 
L 280.285714 237.893624 
L 284.461412 242.413714 
L 287.074286 245.685747 
L 288.702805 247.844571 
L 292.176441 253.275429 
L 293.862857 256.467251 
L 295.006487 258.706286 
L 297.207753 264.137143 
L 298.864989 269.568 
L 299.982079 274.998857 
L 300.556481 280.429714 
L 300.579226 285.860571 
L 300.034777 291.291429 
L 298.900737 296.722286 
L 297.147419 302.153143 
L 294.737245 307.584 
" style="fill:none;stroke:#ff0000;"/>
   </g>
   <g id="LineCollection_2">
    <path clip-path="url(#pa75e86641e)" d="M 104.341365 307.584 
L 103.886684 302.153143 
L 103.782857 297.553668 
L 103.76339 296.722286 
L 103.782857 296.25332 
L 103.97022 291.291429 
L 104.503222 285.860571 
L 105.368697 280.429714 
L 106.577181 274.998857 
L 108.14528 269.568 
L 110.0965 264.137143 
L 110.571429 263.045979 
L 112.337288 258.706286 
L 114.962517 253.275429 
L 117.36 249.045711 
L 118.007085 247.844571 
L 121.388114 242.413714 
L 124.148571 238.563539 
L 125.244704 236.982857 
L 129.530178 231.552 
L 130.937143 229.972267 
L 134.317397 226.121143 
L 137.725714 222.673591 
L 139.689819 220.690286 
L 144.514286 216.329629 
L 145.72143 215.259429 
L 151.302857 210.792006 
L 152.553964 209.828571 
L 158.091429 205.943989 
L 160.432452 204.397714 
L 164.88 201.696429 
L 169.772279 198.966857 
L 171.668571 197.984478 
L 178.457143 194.803891 
L 181.543212 193.536 
L 185.245714 192.106049 
L 192.034286 189.878976 
L 198.747043 188.105143 
L 198.822857 188.08605 
L 205.611429 186.760852 
L 212.4 185.860537 
L 219.188571 185.383394 
L 225.977143 185.327136 
L 232.765714 185.688841 
L 239.554286 186.464925 
L 246.342857 187.651139 
L 248.286958 188.105143 
L 253.131429 189.269367 
L 259.92 191.30433 
L 266.154572 193.536 
L 266.708571 193.742823 
L 273.497143 196.645948 
L 278.320236 198.966857 
L 280.285714 199.965255 
L 287.074286 203.743117 
L 288.171259 204.397714 
L 293.862857 208.021502 
L 296.547846 209.828571 
L 300.651429 212.801074 
L 303.919691 215.259429 
L 307.44 218.133127 
L 310.507105 220.690286 
L 314.228571 224.084245 
L 316.449715 226.121143 
L 321.017143 230.737257 
L 321.830785 231.552 
L 326.732162 236.982857 
L 327.805714 238.311177 
L 331.207636 242.413714 
L 334.594286 247.014997 
L 335.229273 247.844571 
L 338.906685 253.275429 
L 341.382857 257.457078 
L 342.164 258.706286 
L 345.105894 264.137143 
L 347.62794 269.568 
L 348.171429 270.964664 
L 349.857838 274.998857 
L 351.725393 280.429714 
L 353.217647 285.860571 
L 354.349657 291.291429 
L 354.96 295.56131 
L 355.141723 296.722286 
L 355.602542 302.153143 
L 355.691903 307.584 
" style="fill:none;stroke:#000000;stroke-width:3;"/>
   </g>
   <g id="LineCollection_3">
    <path clip-path="url(#pa75e86641e)" d="M 69.84 212.297889 
L 75.349419 209.828571 
L 76.628571 209.310104 
L 83.417143 206.093091 
L 86.638929 204.397714 
L 90.205714 202.688616 
L 96.994286 199.164966 
L 97.341823 198.966857 
L 103.782857 195.599011 
L 107.561001 193.536 
L 110.571429 192.017835 
L 117.36 188.478189 
L 118.047648 188.105143 
L 124.148571 185.022117 
L 128.824294 182.674286 
L 130.937143 181.678231 
L 137.725714 178.483694 
L 140.422962 177.243429 
L 144.514286 175.458947 
L 151.302857 172.636559 
L 153.384013 171.812571 
L 158.091429 170.024291 
L 164.88 167.653722 
L 168.902154 166.381714 
L 171.668571 165.531478 
L 178.457143 163.66722 
L 185.245714 162.087345 
L 191.199251 160.950857 
L 192.034286 160.793167 
L 198.822857 159.774766 
L 205.611429 159.058744 
L 212.4 158.646557 
L 219.188571 158.539393 
L 225.977143 158.738215 
L 232.765714 159.243804 
L 239.554286 160.056778 
L 244.974603 160.950857 
L 246.342857 161.173027 
L 253.131429 162.571883 
L 259.92 164.269493 
L 266.708571 166.263964 
L 267.065097 166.381714 
L 273.497143 168.519182 
L 280.285714 171.052456 
L 282.163334 171.812571 
L 287.074286 173.839203 
L 293.862857 176.873084 
L 294.65482 177.243429 
L 300.651429 180.135705 
L 305.65833 182.674286 
L 307.44 183.614201 
L 314.228571 187.286732 
L 315.726981 188.105143 
L 321.017143 191.141282 
L 325.169391 193.536 
L 327.805714 195.145909 
L 334.123832 198.966857 
L 334.594286 199.270306 
L 341.382857 203.504435 
L 342.874065 204.397714 
L 348.171429 207.808566 
L 351.472538 209.828571 
L 354.96 212.137161 
L 359.992321 215.259429 
L 361.748571 216.445482 
L 368.537143 220.683007 
L 368.550145 220.690286 
L 375.325714 224.846279 
L 377.641491 226.121143 
L 382.114286 228.834447 
L 387.18095 231.552 
L 388.902857 232.57538 
L 395.691429 236.03299 
L 397.923102 236.982857 
L 402.48 239.146072 
" style="fill:none;stroke:#0000ff;"/>
   </g>
   <g id="line2d_15">
    <defs>
     <path d="M 0 1.5 
C 0.397805 1.5 0.77937 1.341951 1.06066 1.06066 
C 1.341951 0.77937 1.5 0.397805 1.5 0 
C 1.5 -0.397805 1.341951 -0.77937 1.06066 -1.06066 
C 0.77937 -1.341951 0.397805 -1.5 0 -1.5 
C -0.397805 -1.5 -0.77937 -1.341951 -1.06066 -1.06066 
C -1.341951 -0.77937 -1.5 -0.397805 -1.5 0 
C -1.5 0.397805 -1.341951 0.77937 -1.06066 1.06066 
C -0.77937 1.341951 -0.397805 1.5 0 1.5 
z
" id="m34c1f94012" style="stroke:#0000ff;"/>
    </defs>
    <g clip-path="url(#pa75e86641e)">
     <use style="fill:#0000ff;stroke:#0000ff;" x="274.41516" xlink:href="#m34c1f94012" y="155.616216"/>
     <use style="fill:#0000ff;stroke:#0000ff;" x="293.726917" xlink:href="#m34c1f94012" y="159.575406"/>
     <use style="fill:#0000ff;stroke:#0000ff;" x="292.584531" xlink:href="#m34c1f94012" y="154.475005"/>
     <use style="fill:#0000ff;stroke:#0000ff;" x="287.527464" xlink:href="#m34c1f94012" y="165.014784"/>
     <use style="fill:#0000ff;stroke:#0000ff;" x="284.795322" xlink:href="#m34c1f94012" y="156.199526"/>
     <use style="fill:#0000ff;stroke:#0000ff;" x="283.008838" xlink:href="#m34c1f94012" y="155.000944"/>
     <use style="fill:#0000ff;stroke:#0000ff;" x="282.173459" xlink:href="#m34c1f94012" y="152.46168"/>
     <use style="fill:#0000ff;stroke:#0000ff;" x="290.531477" xlink:href="#m34c1f94012" y="158.590626"/>
     <use style="fill:#0000ff;stroke:#0000ff;" x="282.521498" xlink:href="#m34c1f94012" y="151.045394"/>
     <use style="fill:#0000ff;stroke:#0000ff;" x="283.141171" xlink:href="#m34c1f94012" y="165.335948"/>
     <use style="fill:#0000ff;stroke:#0000ff;" x="197.034761" xlink:href="#m34c1f94012" y="147.640009"/>
     <use style="fill:#0000ff;stroke:#0000ff;" x="184.588298" xlink:href="#m34c1f94012" y="163.500556"/>
     <use style="fill:#0000ff;stroke:#0000ff;" x="187.491566" xlink:href="#m34c1f94012" y="151.66178"/>
     <use style="fill:#0000ff;stroke:#0000ff;" x="191.127199" xlink:href="#m34c1f94012" y="148.837839"/>
     <use style="fill:#0000ff;stroke:#0000ff;" x="184.093603" xlink:href="#m34c1f94012" y="157.525599"/>
     <use style="fill:#0000ff;stroke:#0000ff;" x="187.74358" xlink:href="#m34c1f94012" y="167.497434"/>
     <use style="fill:#0000ff;stroke:#0000ff;" x="181.232139" xlink:href="#m34c1f94012" y="152.464295"/>
     <use style="fill:#0000ff;stroke:#0000ff;" x="191.256559" xlink:href="#m34c1f94012" y="160.929324"/>
     <use style="fill:#0000ff;stroke:#0000ff;" x="194.178319" xlink:href="#m34c1f94012" y="169.143336"/>
     <use style="fill:#0000ff;stroke:#0000ff;" x="177.240148" xlink:href="#m34c1f94012" y="166.09514"/>
    </g>
   </g>
   <g id="line2d_16">
    <defs>
     <path d="M 0 1.5 
C 0.397805 1.5 0.77937 1.341951 1.06066 1.06066 
C 1.341951 0.77937 1.5 0.397805 1.5 0 
C 1.5 -0.397805 1.341951 -0.77937 1.06066 -1.06066 
C 0.77937 -1.341951 0.397805 -1.5 0 -1.5 
C -0.397805 -1.5 -0.77937 -1.341951 -1.06066 -1.06066 
C -1.341951 -0.77937 -1.5 -0.397805 -1.5 0 
C -1.5 0.397805 -1.341951 0.77937 -1.06066 1.06066 
C -0.77937 1.341951 -0.397805 1.5 0 1.5 
z
" id="mae0061c8b4" style="stroke:#ff0000;"/>
    </defs>
    <g clip-path="url(#pa75e86641e)">
     <use style="fill:#ff0000;stroke:#ff0000;" x="232.537955" xlink:href="#mae0061c8b4" y="195.605213"/>
     <use style="fill:#ff0000;stroke:#ff0000;" x="236.208662" xlink:href="#mae0061c8b4" y="195.237759"/>
     <use style="fill:#ff0000;stroke:#ff0000;" x="244.806964" xlink:href="#mae0061c8b4" y="202.689939"/>
     <use style="fill:#ff0000;stroke:#ff0000;" x="229.618235" xlink:href="#mae0061c8b4" y="188.781572"/>
     <use style="fill:#ff0000;stroke:#ff0000;" x="225.425185" xlink:href="#mae0061c8b4" y="181.375635"/>
     <use style="fill:#ff0000;stroke:#ff0000;" x="228.256357" xlink:href="#mae0061c8b4" y="194.817351"/>
     <use style="fill:#ff0000;stroke:#ff0000;" x="229.906061" xlink:href="#mae0061c8b4" y="196.668068"/>
     <use style="fill:#ff0000;stroke:#ff0000;" x="236.884247" xlink:href="#mae0061c8b4" y="187.781644"/>
     <use style="fill:#ff0000;stroke:#ff0000;" x="230.423774" xlink:href="#mae0061c8b4" y="182.847528"/>
     <use style="fill:#ff0000;stroke:#ff0000;" x="235.630362" xlink:href="#mae0061c8b4" y="197.079206"/>
     <use style="fill:#ff0000;stroke:#ff0000;" x="230.293572" xlink:href="#mae0061c8b4" y="191.035999"/>
     <use style="fill:#ff0000;stroke:#ff0000;" x="237.742333" xlink:href="#mae0061c8b4" y="191.069864"/>
     <use style="fill:#ff0000;stroke:#ff0000;" x="225.27915" xlink:href="#mae0061c8b4" y="198.106919"/>
     <use style="fill:#ff0000;stroke:#ff0000;" x="240.238425" xlink:href="#mae0061c8b4" y="186.262174"/>
     <use style="fill:#ff0000;stroke:#ff0000;" x="242.991903" xlink:href="#mae0061c8b4" y="200.688078"/>
     <use style="fill:#ff0000;stroke:#ff0000;" x="223.910942" xlink:href="#mae0061c8b4" y="188.724455"/>
     <use style="fill:#ff0000;stroke:#ff0000;" x="233.952753" xlink:href="#mae0061c8b4" y="195.745229"/>
     <use style="fill:#ff0000;stroke:#ff0000;" x="249.695837" xlink:href="#mae0061c8b4" y="194.823793"/>
     <use style="fill:#ff0000;stroke:#ff0000;" x="241.152616" xlink:href="#mae0061c8b4" y="199.855159"/>
     <use style="fill:#ff0000;stroke:#ff0000;" x="240.022438" xlink:href="#mae0061c8b4" y="198.508171"/>
    </g>
   </g>
   <g id="patch_3">
    <path d="M 57.6 307.584 
L 57.6 41.472 
" style="fill:none;stroke:#000000;stroke-linecap:square;stroke-linejoin:miter;stroke-width:0.8;"/>
   </g>
   <g id="patch_4">
    <path d="M 414.72 307.584 
L 414.72 41.472 
" style="fill:none;stroke:#000000;stroke-linecap:square;stroke-linejoin:miter;stroke-width:0.8;"/>
   </g>
   <g id="patch_5">
    <path d="M 57.6 307.584 
L 414.72 307.584 
" style="fill:none;stroke:#000000;stroke-linecap:square;stroke-linejoin:miter;stroke-width:0.8;"/>
   </g>
   <g id="patch_6">
    <path d="M 57.6 41.472 
L 414.72 41.472 
" style="fill:none;stroke:#000000;stroke-linecap:square;stroke-linejoin:miter;stroke-width:0.8;"/>
   </g>
   <g id="text_15">
    <!-- C: 0.7, kernel: radi_kernel -->
    <defs>
     <path d="M 64.40625 67.28125 
L 64.40625 56.890625 
Q 59.421875 61.53125 53.78125 63.8125 
Q 48.140625 66.109375 41.796875 66.109375 
Q 29.296875 66.109375 22.65625 58.46875 
Q 16.015625 50.828125 16.015625 36.375 
Q 16.015625 21.96875 22.65625 14.328125 
Q 29.296875 6.6875 41.796875 6.6875 
Q 48.140625 6.6875 53.78125 8.984375 
Q 59.421875 11.28125 64.40625 15.921875 
L 64.40625 5.609375 
Q 59.234375 2.09375 53.4375 0.328125 
Q 47.65625 -1.421875 41.21875 -1.421875 
Q 24.65625 -1.421875 15.125 8.703125 
Q 5.609375 18.84375 5.609375 36.375 
Q 5.609375 53.953125 15.125 64.078125 
Q 24.65625 74.21875 41.21875 74.21875 
Q 47.75 74.21875 53.53125 72.484375 
Q 59.328125 70.75 64.40625 67.28125 
z
" id="DejaVuSans-67"/>
     <path d="M 11.71875 12.40625 
L 22.015625 12.40625 
L 22.015625 0 
L 11.71875 0 
z
M 11.71875 51.703125 
L 22.015625 51.703125 
L 22.015625 39.3125 
L 11.71875 39.3125 
z
" id="DejaVuSans-58"/>
     <path id="DejaVuSans-32"/>
     <path d="M 10.6875 12.40625 
L 21 12.40625 
L 21 0 
L 10.6875 0 
z
" id="DejaVuSans-46"/>
     <path d="M 8.203125 72.90625 
L 55.078125 72.90625 
L 55.078125 68.703125 
L 28.609375 0 
L 18.3125 0 
L 43.21875 64.59375 
L 8.203125 64.59375 
z
" id="DejaVuSans-55"/>
     <path d="M 11.71875 12.40625 
L 22.015625 12.40625 
L 22.015625 4 
L 14.015625 -11.625 
L 7.71875 -11.625 
L 11.71875 4 
z
" id="DejaVuSans-44"/>
     <path d="M 9.078125 75.984375 
L 18.109375 75.984375 
L 18.109375 31.109375 
L 44.921875 54.6875 
L 56.390625 54.6875 
L 27.390625 29.109375 
L 57.625 0 
L 45.90625 0 
L 18.109375 26.703125 
L 18.109375 0 
L 9.078125 0 
z
" id="DejaVuSans-107"/>
     <path d="M 56.203125 29.59375 
L 56.203125 25.203125 
L 14.890625 25.203125 
Q 15.484375 15.921875 20.484375 11.0625 
Q 25.484375 6.203125 34.421875 6.203125 
Q 39.59375 6.203125 44.453125 7.46875 
Q 49.3125 8.734375 54.109375 11.28125 
L 54.109375 2.78125 
Q 49.265625 0.734375 44.1875 -0.34375 
Q 39.109375 -1.421875 33.890625 -1.421875 
Q 20.796875 -1.421875 13.15625 6.1875 
Q 5.515625 13.8125 5.515625 26.8125 
Q 5.515625 40.234375 12.765625 48.109375 
Q 20.015625 56 32.328125 56 
Q 43.359375 56 49.78125 48.890625 
Q 56.203125 41.796875 56.203125 29.59375 
z
M 47.21875 32.234375 
Q 47.125 39.59375 43.09375 43.984375 
Q 39.0625 48.390625 32.421875 48.390625 
Q 24.90625 48.390625 20.390625 44.140625 
Q 15.875 39.890625 15.1875 32.171875 
z
" id="DejaVuSans-101"/>
     <path d="M 41.109375 46.296875 
Q 39.59375 47.171875 37.8125 47.578125 
Q 36.03125 48 33.890625 48 
Q 26.265625 48 22.1875 43.046875 
Q 18.109375 38.09375 18.109375 28.8125 
L 18.109375 0 
L 9.078125 0 
L 9.078125 54.6875 
L 18.109375 54.6875 
L 18.109375 46.1875 
Q 20.953125 51.171875 25.484375 53.578125 
Q 30.03125 56 36.53125 56 
Q 37.453125 56 38.578125 55.875 
Q 39.703125 55.765625 41.0625 55.515625 
z
" id="DejaVuSans-114"/>
     <path d="M 54.890625 33.015625 
L 54.890625 0 
L 45.90625 0 
L 45.90625 32.71875 
Q 45.90625 40.484375 42.875 44.328125 
Q 39.84375 48.1875 33.796875 48.1875 
Q 26.515625 48.1875 22.3125 43.546875 
Q 18.109375 38.921875 18.109375 30.90625 
L 18.109375 0 
L 9.078125 0 
L 9.078125 54.6875 
L 18.109375 54.6875 
L 18.109375 46.1875 
Q 21.34375 51.125 25.703125 53.5625 
Q 30.078125 56 35.796875 56 
Q 45.21875 56 50.046875 50.171875 
Q 54.890625 44.34375 54.890625 33.015625 
z
" id="DejaVuSans-110"/>
     <path d="M 9.421875 75.984375 
L 18.40625 75.984375 
L 18.40625 0 
L 9.421875 0 
z
" id="DejaVuSans-108"/>
     <path d="M 34.28125 27.484375 
Q 23.390625 27.484375 19.1875 25 
Q 14.984375 22.515625 14.984375 16.5 
Q 14.984375 11.71875 18.140625 8.90625 
Q 21.296875 6.109375 26.703125 6.109375 
Q 34.1875 6.109375 38.703125 11.40625 
Q 43.21875 16.703125 43.21875 25.484375 
L 43.21875 27.484375 
z
M 52.203125 31.203125 
L 52.203125 0 
L 43.21875 0 
L 43.21875 8.296875 
Q 40.140625 3.328125 35.546875 0.953125 
Q 30.953125 -1.421875 24.3125 -1.421875 
Q 15.921875 -1.421875 10.953125 3.296875 
Q 6 8.015625 6 15.921875 
Q 6 25.140625 12.171875 29.828125 
Q 18.359375 34.515625 30.609375 34.515625 
L 43.21875 34.515625 
L 43.21875 35.40625 
Q 43.21875 41.609375 39.140625 45 
Q 35.0625 48.390625 27.6875 48.390625 
Q 23 48.390625 18.546875 47.265625 
Q 14.109375 46.140625 10.015625 43.890625 
L 10.015625 52.203125 
Q 14.9375 54.109375 19.578125 55.046875 
Q 24.21875 56 28.609375 56 
Q 40.484375 56 46.34375 49.84375 
Q 52.203125 43.703125 52.203125 31.203125 
z
" id="DejaVuSans-97"/>
     <path d="M 45.40625 46.390625 
L 45.40625 75.984375 
L 54.390625 75.984375 
L 54.390625 0 
L 45.40625 0 
L 45.40625 8.203125 
Q 42.578125 3.328125 38.25 0.953125 
Q 33.9375 -1.421875 27.875 -1.421875 
Q 17.96875 -1.421875 11.734375 6.484375 
Q 5.515625 14.40625 5.515625 27.296875 
Q 5.515625 40.1875 11.734375 48.09375 
Q 17.96875 56 27.875 56 
Q 33.9375 56 38.25 53.625 
Q 42.578125 51.265625 45.40625 46.390625 
z
M 14.796875 27.296875 
Q 14.796875 17.390625 18.875 11.75 
Q 22.953125 6.109375 30.078125 6.109375 
Q 37.203125 6.109375 41.296875 11.75 
Q 45.40625 17.390625 45.40625 27.296875 
Q 45.40625 37.203125 41.296875 42.84375 
Q 37.203125 48.484375 30.078125 48.484375 
Q 22.953125 48.484375 18.875 42.84375 
Q 14.796875 37.203125 14.796875 27.296875 
z
" id="DejaVuSans-100"/>
     <path d="M 9.421875 54.6875 
L 18.40625 54.6875 
L 18.40625 0 
L 9.421875 0 
z
M 9.421875 75.984375 
L 18.40625 75.984375 
L 18.40625 64.59375 
L 9.421875 64.59375 
z
" id="DejaVuSans-105"/>
     <path d="M 50.984375 -16.609375 
L 50.984375 -23.578125 
L -0.984375 -23.578125 
L -0.984375 -16.609375 
z
" id="DejaVuSans-95"/>
    </defs>
    <g transform="translate(158.558437 35.472)scale(0.12 -0.12)">
     <use xlink:href="#DejaVuSans-67"/>
     <use x="69.824219" xlink:href="#DejaVuSans-58"/>
     <use x="103.515625" xlink:href="#DejaVuSans-32"/>
     <use x="135.302734" xlink:href="#DejaVuSans-48"/>
     <use x="198.925781" xlink:href="#DejaVuSans-46"/>
     <use x="230.712891" xlink:href="#DejaVuSans-55"/>
     <use x="294.335938" xlink:href="#DejaVuSans-44"/>
     <use x="326.123047" xlink:href="#DejaVuSans-32"/>
     <use x="357.910156" xlink:href="#DejaVuSans-107"/>
     <use x="415.773438" xlink:href="#DejaVuSans-101"/>
     <use x="477.296875" xlink:href="#DejaVuSans-114"/>
     <use x="518.394531" xlink:href="#DejaVuSans-110"/>
     <use x="581.773438" xlink:href="#DejaVuSans-101"/>
     <use x="643.296875" xlink:href="#DejaVuSans-108"/>
     <use x="671.080078" xlink:href="#DejaVuSans-58"/>
     <use x="704.771484" xlink:href="#DejaVuSans-32"/>
     <use x="736.558594" xlink:href="#DejaVuSans-114"/>
     <use x="777.671875" xlink:href="#DejaVuSans-97"/>
     <use x="838.951172" xlink:href="#DejaVuSans-100"/>
     <use x="902.427734" xlink:href="#DejaVuSans-105"/>
     <use x="930.210938" xlink:href="#DejaVuSans-95"/>
     <use x="980.210938" xlink:href="#DejaVuSans-107"/>
     <use x="1038.074219" xlink:href="#DejaVuSans-101"/>
     <use x="1099.597656" xlink:href="#DejaVuSans-114"/>
     <use x="1140.695312" xlink:href="#DejaVuSans-110"/>
     <use x="1204.074219" xlink:href="#DejaVuSans-101"/>
     <use x="1265.597656" xlink:href="#DejaVuSans-108"/>
    </g>
   </g>
  </g>
 </g>
 <defs>
  <clipPath id="pa75e86641e">
   <rect height="266.112" width="357.12" x="57.6" y="41.472"/>
  </clipPath>
 </defs>
</svg>
