<?xml version="1.0" encoding="utf-8" standalone="no"?>
<!DOCTYPE svg PUBLIC "-//W3C//DTD SVG 1.1//EN"
  "http://www.w3.org/Graphics/SVG/1.1/DTD/svg11.dtd">
<!-- Created with matplotlib (https://matplotlib.org/) -->
<svg height="345.6pt" version="1.1" viewBox="0 0 460.8 345.6" width="460.8pt" xmlns="http://www.w3.org/2000/svg" xmlns:xlink="http://www.w3.org/1999/xlink">
 <defs>
  <style type="text/css">
*{stroke-linecap:butt;stroke-linejoin:round;}
  </style>
 </defs>
 <g id="figure_1">
  <g id="patch_1">
   <path d="M 0 345.6 
L 460.8 345.6 
L 460.8 0 
L 0 0 
z
" style="fill:#ffffff;"/>
  </g>
  <g id="axes_1">
   <g id="patch_2">
    <path d="M 57.6 307.584 
L 414.72 307.584 
L 414.72 41.472 
L 57.6 41.472 
z
" style="fill:#ffffff;"/>
   </g>
   <g id="matplotlib.axis_1">
    <g id="xtick_1">
     <g id="line2d_1">
      <defs>
       <path d="M 0 0 
L 0 3.5 
" id="m0596990e37" style="stroke:#000000;stroke-width:0.8;"/>
      </defs>
      <g>
       <use style="stroke:#000000;stroke-width:0.8;" x="103.104" xlink:href="#m0596990e37" y="307.584"/>
      </g>
     </g>
     <g id="text_1">
      <!-- −4 -->
      <defs>
       <path d="M 10.59375 35.5 
L 73.1875 35.5 
L 73.1875 27.203125 
L 10.59375 27.203125 
z
" id="DejaVuSans-8722"/>
       <path d="M 37.796875 64.3125 
L 12.890625 25.390625 
L 37.796875 25.390625 
z
M 35.203125 72.90625 
L 47.609375 72.90625 
L 47.609375 25.390625 
L 58.015625 25.390625 
L 58.015625 17.1875 
L 47.609375 17.1875 
L 47.609375 0 
L 37.796875 0 
L 37.796875 17.1875 
L 4.890625 17.1875 
L 4.890625 26.703125 
z
" id="DejaVuSans-52"/>
      </defs>
      <g transform="translate(95.732906 322.182437)scale(0.1 -0.1)">
       <use xlink:href="#DejaVuSans-8722"/>
       <use x="83.789062" xlink:href="#DejaVuSans-52"/>
      </g>
     </g>
    </g>
    <g id="xtick_2">
     <g id="line2d_2">
      <g>
       <use style="stroke:#000000;stroke-width:0.8;" x="169.632" xlink:href="#m0596990e37" y="307.584"/>
      </g>
     </g>
     <g id="text_2">
      <!-- −2 -->
      <defs>
       <path d="M 19.1875 8.296875 
L 53.609375 8.296875 
L 53.609375 0 
L 7.328125 0 
L 7.328125 8.296875 
Q 12.9375 14.109375 22.625 23.890625 
Q 32.328125 33.6875 34.8125 36.53125 
Q 39.546875 41.84375 41.421875 45.53125 
Q 43.3125 49.21875 43.3125 52.78125 
Q 43.3125 58.59375 39.234375 62.25 
Q 35.15625 65.921875 28.609375 65.921875 
Q 23.96875 65.921875 18.8125 64.3125 
Q 13.671875 62.703125 7.8125 59.421875 
L 7.8125 69.390625 
Q 13.765625 71.78125 18.9375 73 
Q 24.125 74.21875 28.421875 74.21875 
Q 39.75 74.21875 46.484375 68.546875 
Q 53.21875 62.890625 53.21875 53.421875 
Q 53.21875 48.921875 51.53125 44.890625 
Q 49.859375 40.875 45.40625 35.40625 
Q 44.1875 33.984375 37.640625 27.21875 
Q 31.109375 20.453125 19.1875 8.296875 
z
" id="DejaVuSans-50"/>
      </defs>
      <g transform="translate(162.260906 322.182437)scale(0.1 -0.1)">
       <use xlink:href="#DejaVuSans-8722"/>
       <use x="83.789062" xlink:href="#DejaVuSans-50"/>
      </g>
     </g>
    </g>
    <g id="xtick_3">
     <g id="line2d_3">
      <g>
       <use style="stroke:#000000;stroke-width:0.8;" x="236.16" xlink:href="#m0596990e37" y="307.584"/>
      </g>
     </g>
     <g id="text_3">
      <!-- 0 -->
      <defs>
       <path d="M 31.78125 66.40625 
Q 24.171875 66.40625 20.328125 58.90625 
Q 16.5 51.421875 16.5 36.375 
Q 16.5 21.390625 20.328125 13.890625 
Q 24.171875 6.390625 31.78125 6.390625 
Q 39.453125 6.390625 43.28125 13.890625 
Q 47.125 21.390625 47.125 36.375 
Q 47.125 51.421875 43.28125 58.90625 
Q 39.453125 66.40625 31.78125 66.40625 
z
M 31.78125 74.21875 
Q 44.046875 74.21875 50.515625 64.515625 
Q 56.984375 54.828125 56.984375 36.375 
Q 56.984375 17.96875 50.515625 8.265625 
Q 44.046875 -1.421875 31.78125 -1.421875 
Q 19.53125 -1.421875 13.0625 8.265625 
Q 6.59375 17.96875 6.59375 36.375 
Q 6.59375 54.828125 13.0625 64.515625 
Q 19.53125 74.21875 31.78125 74.21875 
z
" id="DejaVuSans-48"/>
      </defs>
      <g transform="translate(232.97875 322.182437)scale(0.1 -0.1)">
       <use xlink:href="#DejaVuSans-48"/>
      </g>
     </g>
    </g>
    <g id="xtick_4">
     <g id="line2d_4">
      <g>
       <use style="stroke:#000000;stroke-width:0.8;" x="302.688" xlink:href="#m0596990e37" y="307.584"/>
      </g>
     </g>
     <g id="text_4">
      <!-- 2 -->
      <g transform="translate(299.50675 322.182437)scale(0.1 -0.1)">
       <use xlink:href="#DejaVuSans-50"/>
      </g>
     </g>
    </g>
    <g id="xtick_5">
     <g id="line2d_5">
      <g>
       <use style="stroke:#000000;stroke-width:0.8;" x="369.216" xlink:href="#m0596990e37" y="307.584"/>
      </g>
     </g>
     <g id="text_5">
      <!-- 4 -->
      <g transform="translate(366.03475 322.182437)scale(0.1 -0.1)">
       <use xlink:href="#DejaVuSans-52"/>
      </g>
     </g>
    </g>
   </g>
   <g id="matplotlib.axis_2">
    <g id="ytick_1">
     <g id="line2d_6">
      <defs>
       <path d="M 0 0 
L -3.5 0 
" id="mf37ea3bf1b" style="stroke:#000000;stroke-width:0.8;"/>
      </defs>
      <g>
       <use style="stroke:#000000;stroke-width:0.8;" x="57.6" xlink:href="#mf37ea3bf1b" y="307.584"/>
      </g>
     </g>
     <g id="text_6">
      <!-- −4 -->
      <g transform="translate(35.857813 311.383219)scale(0.1 -0.1)">
       <use xlink:href="#DejaVuSans-8722"/>
       <use x="83.789062" xlink:href="#DejaVuSans-52"/>
      </g>
     </g>
    </g>
    <g id="ytick_2">
     <g id="line2d_7">
      <g>
       <use style="stroke:#000000;stroke-width:0.8;" x="57.6" xlink:href="#mf37ea3bf1b" y="274.32"/>
      </g>
     </g>
     <g id="text_7">
      <!-- −3 -->
      <defs>
       <path d="M 40.578125 39.3125 
Q 47.65625 37.796875 51.625 33 
Q 55.609375 28.21875 55.609375 21.1875 
Q 55.609375 10.40625 48.1875 4.484375 
Q 40.765625 -1.421875 27.09375 -1.421875 
Q 22.515625 -1.421875 17.65625 -0.515625 
Q 12.796875 0.390625 7.625 2.203125 
L 7.625 11.71875 
Q 11.71875 9.328125 16.59375 8.109375 
Q 21.484375 6.890625 26.8125 6.890625 
Q 36.078125 6.890625 40.9375 10.546875 
Q 45.796875 14.203125 45.796875 21.1875 
Q 45.796875 27.640625 41.28125 31.265625 
Q 36.765625 34.90625 28.71875 34.90625 
L 20.21875 34.90625 
L 20.21875 43.015625 
L 29.109375 43.015625 
Q 36.375 43.015625 40.234375 45.921875 
Q 44.09375 48.828125 44.09375 54.296875 
Q 44.09375 59.90625 40.109375 62.90625 
Q 36.140625 65.921875 28.71875 65.921875 
Q 24.65625 65.921875 20.015625 65.03125 
Q 15.375 64.15625 9.8125 62.3125 
L 9.8125 71.09375 
Q 15.4375 72.65625 20.34375 73.4375 
Q 25.25 74.21875 29.59375 74.21875 
Q 40.828125 74.21875 47.359375 69.109375 
Q 53.90625 64.015625 53.90625 55.328125 
Q 53.90625 49.265625 50.4375 45.09375 
Q 46.96875 40.921875 40.578125 39.3125 
z
" id="DejaVuSans-51"/>
      </defs>
      <g transform="translate(35.857813 278.119219)scale(0.1 -0.1)">
       <use xlink:href="#DejaVuSans-8722"/>
       <use x="83.789062" xlink:href="#DejaVuSans-51"/>
      </g>
     </g>
    </g>
    <g id="ytick_3">
     <g id="line2d_8">
      <g>
       <use style="stroke:#000000;stroke-width:0.8;" x="57.6" xlink:href="#mf37ea3bf1b" y="241.056"/>
      </g>
     </g>
     <g id="text_8">
      <!-- −2 -->
      <g transform="translate(35.857813 244.855219)scale(0.1 -0.1)">
       <use xlink:href="#DejaVuSans-8722"/>
       <use x="83.789062" xlink:href="#DejaVuSans-50"/>
      </g>
     </g>
    </g>
    <g id="ytick_4">
     <g id="line2d_9">
      <g>
       <use style="stroke:#000000;stroke-width:0.8;" x="57.6" xlink:href="#mf37ea3bf1b" y="207.792"/>
      </g>
     </g>
     <g id="text_9">
      <!-- −1 -->
      <defs>
       <path d="M 12.40625 8.296875 
L 28.515625 8.296875 
L 28.515625 63.921875 
L 10.984375 60.40625 
L 10.984375 69.390625 
L 28.421875 72.90625 
L 38.28125 72.90625 
L 38.28125 8.296875 
L 54.390625 8.296875 
L 54.390625 0 
L 12.40625 0 
z
" id="DejaVuSans-49"/>
      </defs>
      <g transform="translate(35.857813 211.591219)scale(0.1 -0.1)">
       <use xlink:href="#DejaVuSans-8722"/>
       <use x="83.789062" xlink:href="#DejaVuSans-49"/>
      </g>
     </g>
    </g>
    <g id="ytick_5">
     <g id="line2d_10">
      <g>
       <use style="stroke:#000000;stroke-width:0.8;" x="57.6" xlink:href="#mf37ea3bf1b" y="174.528"/>
      </g>
     </g>
     <g id="text_10">
      <!-- 0 -->
      <g transform="translate(44.2375 178.327219)scale(0.1 -0.1)">
       <use xlink:href="#DejaVuSans-48"/>
      </g>
     </g>
    </g>
    <g id="ytick_6">
     <g id="line2d_11">
      <g>
       <use style="stroke:#000000;stroke-width:0.8;" x="57.6" xlink:href="#mf37ea3bf1b" y="141.264"/>
      </g>
     </g>
     <g id="text_11">
      <!-- 1 -->
      <g transform="translate(44.2375 145.063219)scale(0.1 -0.1)">
       <use xlink:href="#DejaVuSans-49"/>
      </g>
     </g>
    </g>
    <g id="ytick_7">
     <g id="line2d_12">
      <g>
       <use style="stroke:#000000;stroke-width:0.8;" x="57.6" xlink:href="#mf37ea3bf1b" y="108"/>
      </g>
     </g>
     <g id="text_12">
      <!-- 2 -->
      <g transform="translate(44.2375 111.799219)scale(0.1 -0.1)">
       <use xlink:href="#DejaVuSans-50"/>
      </g>
     </g>
    </g>
    <g id="ytick_8">
     <g id="line2d_13">
      <g>
       <use style="stroke:#000000;stroke-width:0.8;" x="57.6" xlink:href="#mf37ea3bf1b" y="74.736"/>
      </g>
     </g>
     <g id="text_13">
      <!-- 3 -->
      <g transform="translate(44.2375 78.535219)scale(0.1 -0.1)">
       <use xlink:href="#DejaVuSans-51"/>
      </g>
     </g>
    </g>
    <g id="ytick_9">
     <g id="line2d_14">
      <g>
       <use style="stroke:#000000;stroke-width:0.8;" x="57.6" xlink:href="#mf37ea3bf1b" y="41.472"/>
      </g>
     </g>
     <g id="text_14">
      <!-- 4 -->
      <g transform="translate(44.2375 45.271219)scale(0.1 -0.1)">
       <use xlink:href="#DejaVuSans-52"/>
      </g>
     </g>
    </g>
   </g>
   <g id="LineCollection_1">
    <path clip-path="url(#p88bafe61a2)" d="M 69.84 163.967026 
L 76.628571 164.765187 
L 83.417143 165.563348 
L 90.205714 166.361508 
L 90.377574 166.381714 
L 96.994286 167.159669 
L 103.782857 167.957829 
L 110.571429 168.75599 
L 117.36 169.55415 
L 124.148571 170.352311 
L 130.937143 171.150471 
L 136.568484 171.812571 
L 137.725714 171.948632 
L 144.514286 172.746792 
L 151.302857 173.544953 
L 158.091429 174.343113 
L 164.88 175.141274 
L 171.668571 175.939435 
L 178.457143 176.737595 
L 182.759394 177.243429 
L 185.245714 177.535756 
L 192.034286 178.333916 
L 198.822857 179.132077 
L 205.611429 179.930237 
L 212.4 180.728398 
L 219.188571 181.526558 
L 225.977143 182.324719 
L 228.950304 182.674286 
L 232.765714 183.122879 
L 239.554286 183.92104 
L 246.342857 184.7192 
L 253.131429 185.517361 
L 259.92 186.315522 
L 266.708571 187.113682 
L 273.497143 187.911843 
L 275.141214 188.105143 
L 280.285714 188.710003 
L 287.074286 189.508164 
L 293.862857 190.306324 
L 300.651429 191.104485 
L 307.44 191.902645 
L 314.228571 192.700806 
L 321.017143 193.498966 
L 321.332124 193.536 
L 327.805714 194.297127 
L 334.594286 195.095287 
L 341.382857 195.893448 
L 348.171429 196.691608 
L 354.96 197.489769 
L 361.748571 198.28793 
L 367.523034 198.966857 
L 368.537143 199.08609 
L 375.325714 199.884251 
L 382.114286 200.682411 
L 388.902857 201.480572 
L 395.691429 202.278732 
L 402.48 203.076893 
" style="fill:none;stroke:#ff0000;"/>
   </g>
   <g id="LineCollection_2">
    <path clip-path="url(#p88bafe61a2)" d="M 69.84 155.499312 
L 70.01596 155.52 
L 76.628571 156.297472 
L 83.417143 157.095633 
L 90.205714 157.893793 
L 96.994286 158.691954 
L 103.782857 159.490114 
L 110.571429 160.288275 
L 116.20687 160.950857 
L 117.36 161.086435 
L 124.148571 161.884596 
L 130.937143 162.682757 
L 137.725714 163.480917 
L 144.514286 164.279078 
L 151.302857 165.077238 
L 158.091429 165.875399 
L 162.39778 166.381714 
L 164.88 166.673559 
L 171.668571 167.47172 
L 178.457143 168.26988 
L 185.245714 169.068041 
L 192.034286 169.866201 
L 198.822857 170.664362 
L 205.611429 171.462522 
L 208.58869 171.812571 
L 212.4 172.260683 
L 219.188571 173.058844 
L 225.977143 173.857004 
L 232.765714 174.655165 
L 239.554286 175.453325 
L 246.342857 176.251486 
L 253.131429 177.049646 
L 254.7796 177.243429 
L 259.92 177.847807 
L 266.708571 178.645967 
L 273.497143 179.444128 
L 280.285714 180.242288 
L 287.074286 181.040449 
L 293.862857 181.838609 
L 300.651429 182.63677 
L 300.97051 182.674286 
L 307.44 183.434931 
L 314.228571 184.233091 
L 321.017143 185.031252 
L 327.805714 185.829412 
L 334.594286 186.627573 
L 341.382857 187.425733 
L 347.16142 188.105143 
L 348.171429 188.223894 
L 354.96 189.022054 
L 361.748571 189.820215 
L 368.537143 190.618375 
L 375.325714 191.416536 
L 382.114286 192.214696 
L 388.902857 193.012857 
L 393.35233 193.536 
L 395.691429 193.811017 
L 402.48 194.609178 
" style="fill:none;stroke:#000000;stroke-width:3;"/>
   </g>
   <g id="LineCollection_3">
    <path clip-path="url(#p88bafe61a2)" d="M 69.84 147.031597 
L 76.628571 147.829758 
L 83.417143 148.627918 
L 90.205714 149.426079 
L 95.845255 150.089143 
L 96.994286 150.224239 
L 103.782857 151.0224 
L 110.571429 151.82056 
L 117.36 152.618721 
L 124.148571 153.416881 
L 130.937143 154.215042 
L 137.725714 155.013202 
L 142.036166 155.52 
L 144.514286 155.811363 
L 151.302857 156.609523 
L 158.091429 157.407684 
L 164.88 158.205844 
L 171.668571 159.004005 
L 178.457143 159.802166 
L 185.245714 160.600326 
L 188.227076 160.950857 
L 192.034286 161.398487 
L 198.822857 162.196647 
L 205.611429 162.994808 
L 212.4 163.792968 
L 219.188571 164.591129 
L 225.977143 165.389289 
L 232.765714 166.18745 
L 234.417986 166.381714 
L 239.554286 166.98561 
L 246.342857 167.783771 
L 253.131429 168.581931 
L 259.92 169.380092 
L 266.708571 170.178253 
L 273.497143 170.976413 
L 280.285714 171.774574 
L 280.608896 171.812571 
L 287.074286 172.572734 
L 293.862857 173.370895 
L 300.651429 174.169055 
L 307.44 174.967216 
L 314.228571 175.765376 
L 321.017143 176.563537 
L 326.799806 177.243429 
L 327.805714 177.361697 
L 334.594286 178.159858 
L 341.382857 178.958018 
L 348.171429 179.756179 
L 354.96 180.55434 
L 361.748571 181.3525 
L 368.537143 182.150661 
L 372.990716 182.674286 
L 375.325714 182.948821 
L 382.114286 183.746982 
L 388.902857 184.545142 
L 395.691429 185.343303 
L 402.48 186.141463 
" style="fill:none;stroke:#0000ff;"/>
   </g>
   <g id="line2d_15">
    <defs>
     <path d="M 0 1.5 
C 0.397805 1.5 0.77937 1.341951 1.06066 1.06066 
C 1.341951 0.77937 1.5 0.397805 1.5 0 
C 1.5 -0.397805 1.341951 -0.77937 1.06066 -1.06066 
C 0.77937 -1.341951 0.397805 -1.5 0 -1.5 
C -0.397805 -1.5 -0.77937 -1.341951 -1.06066 -1.06066 
C -1.341951 -0.77937 -1.5 -0.397805 -1.5 0 
C -1.5 0.397805 -1.341951 0.77937 -1.06066 1.06066 
C -0.77937 1.341951 -0.397805 1.5 0 1.5 
z
" id="m78d7efad7c" style="stroke:#0000ff;"/>
    </defs>
    <g clip-path="url(#p88bafe61a2)">
     <use style="fill:#0000ff;stroke:#0000ff;" x="274.41516" xlink:href="#m78d7efad7c" y="155.616216"/>
     <use style="fill:#0000ff;stroke:#0000ff;" x="293.726917" xlink:href="#m78d7efad7c" y="159.575406"/>
     <use style="fill:#0000ff;stroke:#0000ff;" x="292.584531" xlink:href="#m78d7efad7c" y="154.475005"/>
     <use style="fill:#0000ff;stroke:#0000ff;" x="287.527464" xlink:href="#m78d7efad7c" y="165.014784"/>
     <use style="fill:#0000ff;stroke:#0000ff;" x="284.795322" xlink:href="#m78d7efad7c" y="156.199526"/>
     <use style="fill:#0000ff;stroke:#0000ff;" x="283.008838" xlink:href="#m78d7efad7c" y="155.000944"/>
     <use style="fill:#0000ff;stroke:#0000ff;" x="282.173459" xlink:href="#m78d7efad7c" y="152.46168"/>
     <use style="fill:#0000ff;stroke:#0000ff;" x="290.531477" xlink:href="#m78d7efad7c" y="158.590626"/>
     <use style="fill:#0000ff;stroke:#0000ff;" x="282.521498" xlink:href="#m78d7efad7c" y="151.045394"/>
     <use style="fill:#0000ff;stroke:#0000ff;" x="283.141171" xlink:href="#m78d7efad7c" y="165.335948"/>
     <use style="fill:#0000ff;stroke:#0000ff;" x="197.034761" xlink:href="#m78d7efad7c" y="147.640009"/>
     <use style="fill:#0000ff;stroke:#0000ff;" x="184.588298" xlink:href="#m78d7efad7c" y="163.500556"/>
     <use style="fill:#0000ff;stroke:#0000ff;" x="187.491566" xlink:href="#m78d7efad7c" y="151.66178"/>
     <use style="fill:#0000ff;stroke:#0000ff;" x="191.127199" xlink:href="#m78d7efad7c" y="148.837839"/>
     <use style="fill:#0000ff;stroke:#0000ff;" x="184.093603" xlink:href="#m78d7efad7c" y="157.525599"/>
     <use style="fill:#0000ff;stroke:#0000ff;" x="187.74358" xlink:href="#m78d7efad7c" y="167.497434"/>
     <use style="fill:#0000ff;stroke:#0000ff;" x="181.232139" xlink:href="#m78d7efad7c" y="152.464295"/>
     <use style="fill:#0000ff;stroke:#0000ff;" x="191.256559" xlink:href="#m78d7efad7c" y="160.929324"/>
     <use style="fill:#0000ff;stroke:#0000ff;" x="194.178319" xlink:href="#m78d7efad7c" y="169.143336"/>
     <use style="fill:#0000ff;stroke:#0000ff;" x="177.240148" xlink:href="#m78d7efad7c" y="166.09514"/>
    </g>
   </g>
   <g id="line2d_16">
    <defs>
     <path d="M 0 1.5 
C 0.397805 1.5 0.77937 1.341951 1.06066 1.06066 
C 1.341951 0.77937 1.5 0.397805 1.5 0 
C 1.5 -0.397805 1.341951 -0.77937 1.06066 -1.06066 
C 0.77937 -1.341951 0.397805 -1.5 0 -1.5 
C -0.397805 -1.5 -0.77937 -1.341951 -1.06066 -1.06066 
C -1.341951 -0.77937 -1.5 -0.397805 -1.5 0 
C -1.5 0.397805 -1.341951 0.77937 -1.06066 1.06066 
C -0.77937 1.341951 -0.397805 1.5 0 1.5 
z
" id="mb2c114f34e" style="stroke:#ff0000;"/>
    </defs>
    <g clip-path="url(#p88bafe61a2)">
     <use style="fill:#ff0000;stroke:#ff0000;" x="232.537955" xlink:href="#mb2c114f34e" y="195.605213"/>
     <use style="fill:#ff0000;stroke:#ff0000;" x="236.208662" xlink:href="#mb2c114f34e" y="195.237759"/>
     <use style="fill:#ff0000;stroke:#ff0000;" x="244.806964" xlink:href="#mb2c114f34e" y="202.689939"/>
     <use style="fill:#ff0000;stroke:#ff0000;" x="229.618235" xlink:href="#mb2c114f34e" y="188.781572"/>
     <use style="fill:#ff0000;stroke:#ff0000;" x="225.425185" xlink:href="#mb2c114f34e" y="181.375635"/>
     <use style="fill:#ff0000;stroke:#ff0000;" x="228.256357" xlink:href="#mb2c114f34e" y="194.817351"/>
     <use style="fill:#ff0000;stroke:#ff0000;" x="229.906061" xlink:href="#mb2c114f34e" y="196.668068"/>
     <use style="fill:#ff0000;stroke:#ff0000;" x="236.884247" xlink:href="#mb2c114f34e" y="187.781644"/>
     <use style="fill:#ff0000;stroke:#ff0000;" x="230.423774" xlink:href="#mb2c114f34e" y="182.847528"/>
     <use style="fill:#ff0000;stroke:#ff0000;" x="235.630362" xlink:href="#mb2c114f34e" y="197.079206"/>
     <use style="fill:#ff0000;stroke:#ff0000;" x="230.293572" xlink:href="#mb2c114f34e" y="191.035999"/>
     <use style="fill:#ff0000;stroke:#ff0000;" x="237.742333" xlink:href="#mb2c114f34e" y="191.069864"/>
     <use style="fill:#ff0000;stroke:#ff0000;" x="225.27915" xlink:href="#mb2c114f34e" y="198.106919"/>
     <use style="fill:#ff0000;stroke:#ff0000;" x="240.238425" xlink:href="#mb2c114f34e" y="186.262174"/>
     <use style="fill:#ff0000;stroke:#ff0000;" x="242.991903" xlink:href="#mb2c114f34e" y="200.688078"/>
     <use style="fill:#ff0000;stroke:#ff0000;" x="223.910942" xlink:href="#mb2c114f34e" y="188.724455"/>
     <use style="fill:#ff0000;stroke:#ff0000;" x="233.952753" xlink:href="#mb2c114f34e" y="195.745229"/>
     <use style="fill:#ff0000;stroke:#ff0000;" x="249.695837" xlink:href="#mb2c114f34e" y="194.823793"/>
     <use style="fill:#ff0000;stroke:#ff0000;" x="241.152616" xlink:href="#mb2c114f34e" y="199.855159"/>
     <use style="fill:#ff0000;stroke:#ff0000;" x="240.022438" xlink:href="#mb2c114f34e" y="198.508171"/>
    </g>
   </g>
   <g id="patch_3">
    <path d="M 57.6 307.584 
L 57.6 41.472 
" style="fill:none;stroke:#000000;stroke-linecap:square;stroke-linejoin:miter;stroke-width:0.8;"/>
   </g>
   <g id="patch_4">
    <path d="M 414.72 307.584 
L 414.72 41.472 
" style="fill:none;stroke:#000000;stroke-linecap:square;stroke-linejoin:miter;stroke-width:0.8;"/>
   </g>
   <g id="patch_5">
    <path d="M 57.6 307.584 
L 414.72 307.584 
" style="fill:none;stroke:#000000;stroke-linecap:square;stroke-linejoin:miter;stroke-width:0.8;"/>
   </g>
   <g id="patch_6">
    <path d="M 57.6 41.472 
L 414.72 41.472 
" style="fill:none;stroke:#000000;stroke-linecap:square;stroke-linejoin:miter;stroke-width:0.8;"/>
   </g>
  </g>
 </g>
 <defs>
  <clipPath id="p88bafe61a2">
   <rect height="266.112" width="357.12" x="57.6" y="41.472"/>
  </clipPath>
 </defs>
</svg>
